HIERARCHY
ROOT Hips
{
 OFFSET 0.000000 0.000000 0.000000
 CHANNELS 6 Xposition Yposition Zposition Yrotation Xrotation Zrotation
 JOINT Chest
 {
  OFFSET 0.000000 9.585900 0.002600
  CHANNELS 3 Yrotation Xrotation Zrotation
  JOINT Chest2
  {
   OFFSET 0.000000 9.601200 -0.005300
   CHANNELS 3 Yrotation Xrotation Zrotation
   JOINT Chest3
   {
    OFFSET 0.000000 9.561800 0.000000
    CHANNELS 3 Yrotation Xrotation Zrotation
    JOINT Chest4
    {
     OFFSET 0.000000 9.552100 0.000000
     CHANNELS 3 Yrotation Xrotation Zrotation
     JOINT Neck
     {
      OFFSET 0.000000 14.453000 0.000000
      CHANNELS 3 Yrotation Xrotation Zrotation
      JOINT Head
      {
       OFFSET 0.000000 8.936500 -0.011300
       CHANNELS 3 Yrotation Xrotation Zrotation
       End Site
       {
        OFFSET 0.000000 17.073600 -0.006000
       }
      }
     }
     JOINT RightCollar
     {
      OFFSET -2.921100 9.558500 0.000000
      CHANNELS 3 Yrotation Xrotation Zrotation
      JOINT RightShoulder
      {
       OFFSET -13.519700 0.000000 0.000000
       CHANNELS 3 Yrotation Xrotation Zrotation
       JOINT RightElbow
       {
        OFFSET 0.000000 -29.696600 0.000000
        CHANNELS 3 Yrotation Xrotation Zrotation
        JOINT RightWrist
        {
         OFFSET 0.000000 -24.004700 0.000000
         CHANNELS 3 Yrotation Xrotation Zrotation
         End Site
         {
          OFFSET 0.000000 -17.728500 0.000000
         }
        }
       }
      }
     }
     JOINT LeftCollar
     {
      OFFSET 2.921100 9.558500 0.000000
      CHANNELS 3 Yrotation Xrotation Zrotation
      JOINT LeftShoulder
      {
       OFFSET 13.519700 0.000000 0.000000
       CHANNELS 3 Yrotation Xrotation Zrotation
       JOINT LeftElbow
       {
        OFFSET 0.000000 -29.696600 0.000000
        CHANNELS 3 Yrotation Xrotation Zrotation
        JOINT LeftWrist
        {
         OFFSET 0.000000 -24.004700 0.000000
         CHANNELS 3 Yrotation Xrotation Zrotation
         End Site
         {
          OFFSET 0.000000 -17.728500 0.000000
         }
        }
       }
      }
     }
    }
   }
  }
 }
 JOINT RightHip
 {
  OFFSET -7.771700 -0.012900 -0.001300
  CHANNELS 3 Yrotation Xrotation Zrotation
  JOINT RightKnee
  {
   OFFSET 0.000000 -40.869800 0.001200
   CHANNELS 3 Yrotation Xrotation Zrotation
   JOINT RightAnkle
   {
    OFFSET 0.000000 -39.717900 0.002100
    CHANNELS 3 Yrotation Xrotation Zrotation
    JOINT RightToe
    {
     OFFSET 0.000000 -4.965400 11.033500
     CHANNELS 3 Yrotation Xrotation Zrotation
     End Site
     {
      OFFSET 0.000000 -1.423100 5.872300
     }
    }
   }
  }
 }
 JOINT LeftHip
 {
  OFFSET 7.771700 -0.012900 -0.001300
  CHANNELS 3 Yrotation Xrotation Zrotation
  JOINT LeftKnee
  {
   OFFSET 0.000000 -40.869800 0.001200
   CHANNELS 3 Yrotation Xrotation Zrotation
   JOINT LeftAnkle
   {
    OFFSET 0.000000 -39.717900 0.002100
    CHANNELS 3 Yrotation Xrotation Zrotation
    JOINT LeftToe
    {
     OFFSET 0.000000 -4.965400 11.033500
     CHANNELS 3 Yrotation Xrotation Zrotation
     End Site
     {
      OFFSET 0.000000 -1.423100 5.872300
     }
    }
   }
  }
 }
}
MOTION
Frames: 6
Frame Time: 0.008333
0.000000 85.388000 0.000000 0.000000 -5.767877 0.000000 0.000000 11.653817 0.000000 0.000000 -5.885947 0.000000 0.000000 -0.000000 0.000000 0.000000 -0.000000 0.000000 0.000000 12.528835 0.000000 0.000000 0.711642 0.000000 0.000000 -0.000000 0.000000 0.000000 0.000000 -90.000000 0.000000 -2.309062 0.000000 0.000000 2.309062 0.000000 0.000000 -0.000000 0.000000 0.000000 -0.000000 90.000000 0.000000 -2.309062 0.000000 0.000000 2.309062 0.000000 0.000000 8.520406 0.000000 0.000000 1.905762 0.000000 -0.000000 -4.658285 0.000000 0.000000 -0.000000 0.000000 0.000000 8.520406 0.000000 0.000000 1.905762 0.000000 -0.000000 -4.658285 0.000000 0.000000 -0.000000 0.000000
-42.550951 44.379307 24.971649 178.344876 -31.796422 0.046275 0.767098 26.574669 1.057374 0.059110 4.517296 0.245726 0.103302 7.169947 0.393221 0.489374 21.812297 1.283988 -2.485432 13.412281 -10.842903 -0.179143 -11.368095 -11.496916 14.557811 0.788529 -3.888514 -10.351159 -17.394465 -6.523203 -81.638131 -49.071686 86.795637 -17.260057 -2.801295 18.611498 -18.661894 -2.385345 -8.384602 14.789007 -15.527688 4.006514 90.279006 -47.952148 -108.253666 23.337180 -3.716941 -2.136411 1.814405 -60.423452 5.934241 -158.769755 72.176165 -158.428241 -12.802480 -20.992960 8.254695 0.179666 -0.834030 0.094353 3.709070 -41.766854 -4.232684 177.193100 58.473530 175.677132 -2.607966 -42.690005 5.284082 0.094516 0.283376 0.032540
-42.551893 44.380169 24.973744 178.349268 -31.797078 0.051050 0.772000 26.587507 1.048413 0.059861 4.523898 0.244077 0.104086 7.179564 0.390428 0.490403 21.824414 1.274266 -2.722419 13.324205 -10.830348 -0.448660 -11.459932 -11.425758 14.567594 0.845936 -3.929039 -10.430639 -17.363888 -6.491272 -82.163539 -49.325791 87.602469 -17.222478 -2.783228 18.555464 -18.654323 -2.380065 -8.395586 14.803418 -15.539098 4.038615 90.671102 -47.834465 -108.938130 23.352961 -3.731288 -2.229131 1.824369 -60.422239 5.924853 -158.736282 72.176505 -158.402170 -12.797923 -20.989483 8.259665 0.171660 -0.834054 0.093667 3.710145 -41.766797 -4.243087 177.187727 58.478536 175.672212 -2.607049 -42.686425 5.282345 0.095818 0.286050 0.033684
-42.555375 44.381336 24.975888 178.365133 -31.799488 0.064915 0.782470 26.604591 1.027374 0.060423 4.534316 0.240401 0.104981 7.195100 0.384525 0.490104 21.844030 1.254726 -2.969792 13.221165 -10.781816 -0.729001 -11.540953 -11.348211 14.562812 0.822788 -3.918219 -10.484699 -17.285204 -6.507335 -82.732305 -49.595190 88.459423 -17.182247 -2.766488 18.511012 -18.655868 -2.385934 -8.376524 14.824562 -15.555526 4.072060 91.074176 -47.733489 -109.641225 23.360675 -3.745686 -2.368206 1.846645 -60.417782 5.889103 -158.694724 72.176568 -158.370342 -12.811697 -20.986771 8.270023 0.174107 -0.830926 0.094062 3.706750 -41.765985 -4.271486 177.186012 58.486255 175.663028 -2.603665 -42.677066 5.279958 0.097187 0.286683 0.034988
-42.556137 44.382523 24.978509 178.373810 -31.800612 0.066081 0.781532 26.608267 1.021968 0.064342 4.538924 0.237381 0.107411 7.202640 0.378751 0.489046 21.851977 1.245069 -3.214324 13.158738 -10.760249 -1.007242 -11.611820 -11.267074 14.562199 0.844138 -3.923236 -10.533238 -17.210993 -6.532182 -83.337031 -49.870643 89.357813 -17.131722 -2.750570 18.494911 -18.644818 -2.363809 -8.400580 14.921073 -15.564169 4.075254 91.448928 -47.660436 -110.393774 23.362659 -3.754388 -2.545075 1.850913 -60.415531 5.884573 -158.643543 72.177259 -158.329934 -12.799723 -20.979949 8.272733 0.174077 -0.832794 0.091807 3.699945 -41.766555 -4.279923 177.182268 58.492061 175.657745 -2.596136 -42.672502 5.273574 0.095996 0.289365 0.035495
-42.556647 44.383895 24.981126 178.374609 -31.802131 0.069623 0.787688 26.612198 1.017943 0.060619 4.538726 0.238741 0.109746 7.206712 0.374216 0.488281 21.859637 1.232053 -3.448300 13.107657 -10.743600 -1.269531 -11.673982 -11.186368 14.557803 0.876621 -3.929126 -10.583396 -17.146699 -6.565605 -83.969614 -50.140451 90.299726 -17.067085 -2.728963 18.504901 -18.633083 -2.343086 -8.419931 14.955672 -15.587095 4.089282 91.890077 -47.595283 -111.132201 23.362154 -3.750019 -2.743804 1.865164 -60.417598 5.879840 -158.601688 72.173409 -158.293931 -12.793638 -20.966760 8.277147 0.177827 -0.838997 0.094268 3.696741 -41.764773 -4.286713 177.173440 58.498361 175.647734 -2.587726 -42.670729 5.270930 0.092065 0.293445 0.028529
